<?xml version="1.0" encoding="UTF-8" standalone="no"?>
<!-- Generator: Adobe Illustrator 19.0.0, SVG Export Plug-In . SVG Version: 6.00 Build 0)  -->

<svg
   version="1.1"
   id="Layer_1"
   x="0px"
   y="0px"
   viewBox="0 0 512 512"
   xml:space="preserve"
   sodipodi:docname="flag-english-circle.svg"
   width="256"
   height="256"
   inkscape:version="1.3 (0e150ed6c4, 2023-07-21)"
   xmlns:inkscape="http://www.inkscape.org/namespaces/inkscape"
   xmlns:sodipodi="http://sodipodi.sourceforge.net/DTD/sodipodi-0.dtd"
   xmlns="http://www.w3.org/2000/svg"
   xmlns:svg="http://www.w3.org/2000/svg"><defs
   id="defs28" /><sodipodi:namedview
   id="namedview28"
   pagecolor="#ffffff"
   bordercolor="#000000"
   borderopacity="0.25"
   inkscape:showpageshadow="2"
   inkscape:pageopacity="0.0"
   inkscape:pagecheckerboard="0"
   inkscape:deskcolor="#d1d1d1"
   inkscape:zoom="1.2519531"
   inkscape:cx="107.83152"
   inkscape:cy="170.53354"
   inkscape:window-width="1920"
   inkscape:window-height="1017"
   inkscape:window-x="-8"
   inkscape:window-y="-8"
   inkscape:window-maximized="1"
   inkscape:current-layer="Layer_1" />&#10;<circle
   style="display:inline;fill:#f0f0f0;stroke-width:0.963801"
   cx="256"
   cy="256"
   r="246.73294"
   id="circle1" />&#10;<g
   id="g8"
   style="fill:#012268;fill-opacity:1"
   transform="matrix(0.96380056,0,0,0.96380056,9.2670562,9.2670562)">&#10;	<path
   style="fill:#012268;fill-opacity:1"
   d="M 52.92,100.142 C 32.811,126.305 17.648,156.46 8.819,189.219 h 133.178 z"
   id="path1" />&#10;	<path
   style="fill:#012268;fill-opacity:1"
   d="m 503.181,189.219 c -8.829,-32.758 -23.993,-62.913 -44.101,-89.076 l -89.075,89.076 z"
   id="path2" />&#10;	<path
   style="fill:#012268;fill-opacity:1"
   d="m 8.819,322.784 c 8.83,32.758 23.993,62.913 44.101,89.075 l 89.074,-89.075 z"
   id="path3" />&#10;	<path
   style="fill:#012268;fill-opacity:1"
   d="M 411.858,52.921 C 385.695,32.812 355.541,17.649 322.782,8.819 v 133.177 z"
   id="path4" />&#10;	<path
   style="fill:#012268;fill-opacity:1"
   d="m 100.142,459.079 c 26.163,20.109 56.318,35.272 89.076,44.102 V 370.005 Z"
   id="path5" />&#10;	<path
   style="fill:#012268;fill-opacity:1"
   d="m 189.217,8.819 c -32.758,8.83 -62.913,23.993 -89.075,44.101 l 89.075,89.075 z"
   id="path6" />&#10;	<path
   style="fill:#012268;fill-opacity:1"
   d="m 322.783,503.181 c 32.758,-8.83 62.913,-23.993 89.075,-44.101 l -89.075,-89.075 z"
   id="path7" />&#10;	<path
   style="fill:#012268;fill-opacity:1"
   d="m 370.005,322.784 89.075,89.076 c 20.108,-26.162 35.272,-56.318 44.101,-89.076 z"
   id="path8" />&#10;</g>&#10;<g
   id="g13"
   transform="matrix(0.96380056,0,0,0.96380056,9.2670562,9.2670562)">&#10;	<path
   style="fill:#d80027"
   d="m 509.833,222.609 h -220.44 -10e-4 V 2.167 C 278.461,0.744 267.317,0 256,0 244.681,0 233.539,0.744 222.609,2.167 v 220.44 0.001 H 2.167 C 0.744,233.539 0,244.683 0,256 c 0,11.319 0.744,22.461 2.167,33.391 h 220.44 0.001 V 509.833 C 233.539,511.256 244.681,512 256,512 c 11.317,0 22.461,-0.743 33.391,-2.167 v -220.44 -10e-4 H 509.833 C 511.256,278.461 512,267.319 512,256 c 0,-11.317 -0.744,-22.461 -2.167,-33.391 z"
   id="path9" />&#10;	<path
   style="fill:#d80027"
   d="m 322.783,322.784 v 0 L 437.019,437.02 c 5.254,-5.252 10.266,-10.743 15.048,-16.435 l -97.802,-97.802 h -31.482 z"
   id="path10" />&#10;	<path
   style="fill:#d80027"
   d="m 189.217,322.784 h -0.002 L 74.98,437.019 c 5.252,5.254 10.743,10.266 16.435,15.048 l 97.802,-97.804 z"
   id="path11" />&#10;	<path
   style="fill:#d80027"
   d="m 189.217,189.219 v -0.002 L 74.981,74.98 C 69.727,80.232 64.715,85.723 59.933,91.415 l 97.803,97.803 h 31.481 z"
   id="path12" />&#10;	<path
   style="fill:#d80027"
   d="m 322.783,189.219 v 0 L 437.02,74.981 C 431.768,69.727 426.277,64.715 420.585,59.934 l -97.802,97.803 z"
   id="path13" />&#10;</g>&#10;<g
   id="g14"
   transform="matrix(0.96380056,0,0,0.96380056,9.2670562,9.2670562)">&#10;</g>&#10;<g
   id="g15"
   transform="matrix(0.96380056,0,0,0.96380056,9.2670562,9.2670562)">&#10;</g>&#10;<g
   id="g16"
   transform="matrix(0.96380056,0,0,0.96380056,9.2670562,9.2670562)">&#10;</g>&#10;<g
   id="g17"
   transform="matrix(0.96380056,0,0,0.96380056,9.2670562,9.2670562)">&#10;</g>&#10;<g
   id="g18"
   transform="matrix(0.96380056,0,0,0.96380056,9.2670562,9.2670562)">&#10;</g>&#10;<g
   id="g19"
   transform="matrix(0.96380056,0,0,0.96380056,9.2670562,9.2670562)">&#10;</g>&#10;<g
   id="g20"
   transform="matrix(0.96380056,0,0,0.96380056,9.2670562,9.2670562)">&#10;</g>&#10;<g
   id="g21"
   transform="matrix(0.96380056,0,0,0.96380056,9.2670562,9.2670562)">&#10;</g>&#10;<g
   id="g22"
   transform="matrix(0.96380056,0,0,0.96380056,9.2670562,9.2670562)">&#10;</g>&#10;<g
   id="g23"
   transform="matrix(0.96380056,0,0,0.96380056,9.2670562,9.2670562)">&#10;</g>&#10;<g
   id="g24"
   transform="matrix(0.96380056,0,0,0.96380056,9.2670562,9.2670562)">&#10;</g>&#10;<g
   id="g25"
   transform="matrix(0.96380056,0,0,0.96380056,9.2670562,9.2670562)">&#10;</g>&#10;<g
   id="g26"
   transform="matrix(0.96380056,0,0,0.96380056,9.2670562,9.2670562)">&#10;</g>&#10;<g
   id="g27"
   transform="matrix(0.96380056,0,0,0.96380056,9.2670562,9.2670562)">&#10;</g>&#10;<g
   id="g28"
   transform="matrix(0.96380056,0,0,0.96380056,9.2670562,9.2670562)">&#10;</g>&#10;<circle
   style="fill:none;fill-opacity:1;stroke:#fcfcfc;stroke-width:19.2678;stroke-linecap:round;stroke-linejoin:round;stroke-dasharray:none;paint-order:stroke fill markers;stroke-opacity:1"
   id="path28"
   cx="256"
   cy="256"
   inkscape:label="border"
   r="246.36612" /></svg>
