<?xml version="1.0" encoding="UTF-8" standalone="no"?>
<svg
   id="Layer_2"
   data-name="Layer 2"
   viewBox="0 0 188.66999 188.67"
   version="1.1"
   sodipodi:docname="Location.svg"
   width="188.67"
   height="188.67"
   inkscape:version="1.3 (0e150ed6c4, 2023-07-21)"
   xmlns:inkscape="http://www.inkscape.org/namespaces/inkscape"
   xmlns:sodipodi="http://sodipodi.sourceforge.net/DTD/sodipodi-0.dtd"
   xmlns="http://www.w3.org/2000/svg"
   xmlns:svg="http://www.w3.org/2000/svg">
  <sodipodi:namedview
     id="namedview5"
     pagecolor="#ffffff"
     bordercolor="#000000"
     borderopacity="0.25"
     inkscape:showpageshadow="2"
     inkscape:pageopacity="0.0"
     inkscape:pagecheckerboard="0"
     inkscape:deskcolor="#d1d1d1"
     inkscape:zoom="2.7088459"
     inkscape:cx="-51.128785"
     inkscape:cy="94.32061"
     inkscape:window-width="1920"
     inkscape:window-height="1017"
     inkscape:window-x="-8"
     inkscape:window-y="-8"
     inkscape:window-maximized="1"
     inkscape:current-layer="Layer_2" />
  <defs
     id="defs1">
    <style
       id="style1">&#10;      .cls-1 {&#10;        stroke-width: 2.99px;&#10;      }&#10;&#10;      .cls-1, .cls-2 {&#10;        fill: none;&#10;        stroke: #58c6cd;&#10;        stroke-linecap: round;&#10;        stroke-linejoin: round;&#10;      }&#10;&#10;      .cls-2 {&#10;        stroke-width: 2.3px;&#10;      }&#10;    </style>
  </defs>
  <g
     id="Layer_1-2"
     data-name="Layer 1"
     transform="translate(-290.86502,-0.005)">
    <g
       id="g4">
      <g
         id="g3">
        <g
           id="g2">
          <circle
             class="cls-1"
             cx="385.20001"
             cy="85.529999"
             r="14.78"
             transform="rotate(-45,385.20477,85.52296)"
             id="circle1" />
          <circle
             class="cls-1"
             cx="385.20001"
             cy="85.529999"
             r="6.3400002"
             id="circle2" />
        </g>
        <path
           class="cls-1"
           d="m 425.33,82.74 c 0,-23.1 -19.52,-41.65 -42.97,-40.03 -20.05,1.38 -36.18,17.81 -37.23,37.88 -0.69,13.17 4.98,25.03 14.21,32.82 v 0 c 0,0 0.02,0.02 0.03,0.02 0.08,0.07 0.16,0.14 0.24,0.21 2.22,1.94 17.73,15.85 23.76,31.16 0.65,1.66 3.02,1.66 3.68,0 6.02,-15.31 21.54,-29.22 23.76,-31.16 0.08,-0.07 0.16,-0.14 0.24,-0.21 0,0 0.03,-0.02 0.03,-0.02 v 0 c 8.72,-7.36 14.26,-18.37 14.26,-30.67 z"
           id="path2" />
      </g>
      <circle
         class="cls-1"
         cx="385.20001"
         cy="94.339996"
         r="92.839996"
         id="circle3" />
    </g>
    <g
       id="g5" />
  </g>
</svg>
