<?xml version="1.0" encoding="UTF-8"?>
<svg id="Layer_2" data-name="Layer 2" xmlns="http://www.w3.org/2000/svg" viewBox="0 0 188.67 188.67">
  <defs>
    <style>
      .cls-1 {
        fill: none;
        stroke: #58c6cd;
        stroke-linecap: round;
        stroke-linejoin: round;
        stroke-width: 2.99px;
      }
    </style>
  </defs>
  <g id="Layer_1-2" data-name="Layer 1">
    <g>
      <path class="cls-1" d="M132.71,81.83c-3.91-7.43-10.41-13.3-18.31-16.38"/>
      <path class="cls-1" d="M96.91,45.44c0-2.45,1.98-3.42,4.43-3.42s4.43.98,4.43,3.42-1.98,6.83-4.43,6.83-4.43-4.39-4.43-6.83Z"/>
      <path class="cls-1" d="M89.74,93.83h62.78v4.2c0,2.32-1.88,4.2-4.2,4.2H54.35c-2.32,0-4.2-1.88-4.2-4.2v-4.2h22.57"/>
      <path class="cls-1" d="M130.11,102.24c-7.33,0-17.29,3.7-27.31,11.52-6.88,5.37-12.35,6.23-14.65,1.23-2.15-4.68-2.54-12.75-13.35-12.75-5.66,0-4.86,6.23-4.86,6.23,3,1.01,6.68,2.73,6.36,6.03-.75,7.87-.73,7.14-8.13,10.78"/>
      <path class="cls-1" d="M68.17,141.05c17.01,0,32.41-3.37,36.25-8.27,2.5-3.2,8.32-13.04,13.34-17.52,5.47-4.87,9.37-4.59,13.89-4.87,4.65-.29,5.05-8.15-1.54-8.15h2.26"/>
      <polygon class="cls-1" points="53.96 146.52 68.17 146.66 68.17 119.32 53.96 119.18 53.96 146.52"/>
      <path class="cls-1" d="M146.9,93.83c-2.12-23.3-21.71-41.56-45.56-41.56s-43.44,18.26-45.56,41.56"/>
    </g>
    <circle class="cls-1" cx="94.34" cy="94.34" r="92.84"/>
  </g>
</svg>