<?xml version="1.0"?>
<svg xmlns="http://www.w3.org/2000/svg" width="50" height="50" viewBox="0 0 50 50">
    <path style="text-indent:0;text-align:start;line-height:normal;text-transform:none;block-progression:tb;-inkscape-font-specification:Bitstream Vera Sans" d="M 24.1875 3 C 23.2775 3 22.3315 3.43875 21.5625 4.21875 L 9.9375 15.8125 C 9.2975 16.3785 9 17.476 9 18.25 L 9 31.75 C 9 32.517 9.31825 33.608 9.90625 34.125 L 21.5 45.6875 C 22.555 46.7605 23.52925 47 24.15625 47 C 25.82325 47 27 45.4765 27 43.3125 L 27 6.3125 C 27 4.0345 25.5395 3 24.1875 3 z M 3 15.96875 C 1.324 15.96875 -0.03125 17.324 -0.03125 19 L -0.03125 31 C -0.03125 32.676 1.324 34.03125 3 34.03125 L 7.46875 34.03125 C 7.13875 33.24425 7 32.411 7 31.75 L 7 18.25 C 7 17.592 7.166 16.76175 7.5 15.96875 L 3 15.96875 z M 31.90625 18.96875 A 1.0001 1.0001 0 0 0 31.78125 19 A 1.0001 1.0001 0 0 0 31.28125 20.71875 L 35.5625 25 L 31.28125 29.28125 A 1.016466 1.016466 0 1 0 32.71875 30.71875 L 37 26.4375 L 41.28125 30.71875 A 1.016466 1.016466 0 1 0 42.71875 29.28125 L 38.4375 25 L 42.71875 20.71875 A 1.0001 1.0001 0 0 0 41.875 19 A 1.0001 1.0001 0 0 0 41.28125 19.28125 L 37 23.5625 L 32.71875 19.28125 A 1.0001 1.0001 0 0 0 31.90625 18.96875 z" overflow="visible" enable-background="accumulate" font-family="Bitstream Vera Sans"/>
</svg>
