<?xml version="1.0"?>
<svg xmlns="http://www.w3.org/2000/svg" width="50" height="50" viewBox="0 0 50 50">
    <path style="text-indent:0;text-align:start;line-height:normal;text-transform:none;block-progression:tb;-inkscape-font-specification:Bitstream Vera Sans" d="M 24.1875 3 C 23.2775 3 22.3315 3.43875 21.5625 4.21875 L 9.9375 15.8125 C 9.2975 16.3785 9 17.476 9 18.25 L 9 31.75 C 9 32.517 9.31825 33.607 9.90625 34.125 L 21.5 45.6875 C 22.555 46.7595 23.52925 47 24.15625 47 C 25.82325 47 27 45.4775 27 43.3125 L 27 6.3125 C 27 4.0345 25.5395 3 24.1875 3 z M 34.71875 12.125 A 1.0001 1.0001 0 0 0 34.4375 14.03125 C 38.340734 16.136979 41 20.245277 41 25 C 41 29.739253 38.351151 33.8605 34.46875 35.96875 A 1.0001221 1.0001221 0 1 0 35.4375 37.71875 C 39.945099 35.271 43 30.482747 43 25 C 43 19.500723 39.937016 14.694271 35.40625 12.25 A 1.0001 1.0001 0 0 0 34.8125 12.125 A 1.0001 1.0001 0 0 0 34.71875 12.125 z M 3 15.96875 C 1.324 15.96875 -0.03125 17.324 -0.03125 19 L -0.03125 31 C -0.03125 32.676 1.324 34.03125 3 34.03125 L 7.46875 34.03125 C 7.13875 33.24425 7 32.411 7 31.75 L 7 18.25 C 7 17.592 7.166 16.76175 7.5 15.96875 L 3 15.96875 z M 30.53125 18.40625 A 1.0001 1.0001 0 0 0 30.4375 20.375 C 32.48345 20.908977 34 22.77597 34 25 C 34 27.22403 32.484852 29.090047 30.4375 29.625 A 1.0004882 1.0004882 0 1 0 30.9375 31.5625 C 33.850148 30.801453 36 28.13597 36 25 C 36 21.86403 33.84955 19.197523 30.9375 18.4375 A 1.0001 1.0001 0 0 0 30.53125 18.40625 z" overflow="visible" enable-background="accumulate" font-family="Bitstream Vera Sans"/>
</svg>
